<svg width="1440" height="660" viewBox="0 0 1440 660" fill="none" xmlns="http://www.w3.org/2000/svg">
<g clip-path="url(#clip0)">
<path d="M1231.27 0C1231.27 0 1267.85 118.761 1307.92 146.407C1307.92 146.407 1295.47 153.027 1280.3 144.071C1280.3 144.071 1309.09 192.354 1349.94 228.177C1337.49 241.805 1351.89 274.903 1351.89 274.903L1364.73 327.08L1339.44 324.354C1339.44 324.354 1362.78 470.372 1382.24 485.168C1382.24 485.168 1224.27 494.903 1084.2 460.248C1084.2 460.248 1114.94 370.301 1136.34 311.894C1136.34 311.894 1150.74 273.345 1119.61 265.168C1119.61 265.168 1175.64 192.743 1189.64 135.894C1189.64 135.894 1173.3 144.071 1159.68 139.009C1159.68 139.009 1219.21 51.0089 1231.27 0Z" fill="#48B785"/>
<path d="M517.318 501.133C517.318 501.133 508.759 501.522 493.974 501.911C486.97 502.301 478.8 502.301 469.073 502.301C442.227 502.301 406.042 501.522 365.578 498.407C333.285 495.681 298.657 491.398 263.64 485.168C260.917 484.779 258.582 484.389 255.859 483.61C275.312 455.575 290.876 431.044 290.876 431.044C290.876 431.044 217.34 459.469 245.354 432.212C267.531 410.407 304.104 340.318 318.111 312.283C321.613 305.664 323.558 301.38 323.947 300.602C323.558 300.991 318.889 302.548 313.053 304.495C299.435 309.168 279.203 315.787 283.483 310.725C285.039 308.779 290.876 297.876 299.046 282.69C288.152 265.168 279.592 249.593 275.702 242.973C276.091 242.194 276.48 241.416 277.258 240.637C287.763 243.752 317.722 253.097 312.664 248.035C310.718 246.088 302.937 232.849 292.821 214.938C306.05 191.964 318.889 165.097 324.725 140.956C324.725 140.956 308.384 149.133 294.766 144.071C294.766 144.071 354.295 53.3449 366.356 0.778564C366.356 0.778564 402.93 123.433 443.394 151.858C443.394 151.858 430.943 158.867 415.769 149.522C415.769 149.522 430.554 174.832 453.51 202.867C462.848 214.159 473.742 225.841 485.414 236.354C472.964 250.371 487.359 284.248 487.359 284.248L500.199 337.982L474.909 335.256C474.909 335.256 483.08 388.212 493.974 434.159C494.752 437.274 495.53 440.389 496.308 443.504C498.254 451.292 500.199 458.69 502.144 465.31C506.424 483.221 511.871 496.849 517.318 501.133Z" fill="#48B785"/>
<path d="M1579.11 508.92C1549.15 489.451 1477.56 390.159 1477.56 390.159C1477.56 390.159 1553.04 416.248 1524.64 391.327C1495.85 366.407 1443.71 272.566 1443.71 272.566C1443.71 272.566 1491.96 288.142 1485.34 281.522C1479.12 275.292 1404.8 140.177 1399.75 130.832C1395.85 123.434 1381.85 161.593 1365.9 190.018C1342.55 230.513 1314.93 278.018 1311.42 281.522C1304.81 288.142 1353.06 272.566 1353.06 272.566C1353.06 272.566 1300.92 366.407 1272.13 391.327C1243.34 416.248 1319.21 390.159 1319.21 390.159C1319.21 390.159 1247.62 489.451 1217.66 508.92C1196.65 522.549 1268.24 533.062 1326.21 533.841C1381.07 536.566 1469.78 538.903 1518.41 531.504C1560.43 527.221 1594.67 519.044 1579.11 508.92Z" fill="#23885B"/>
<path d="M1249.17 497.629C1219.99 475.823 1150.35 366.018 1150.35 366.018C1150.35 366.018 1223.88 394.832 1195.87 367.576C1167.85 339.93 1117.27 235.965 1117.27 235.965C1117.27 235.965 1164.35 253.487 1157.74 246.089C1151.51 239.08 1079.15 89.1684 1074.09 79.0445C1070.2 70.8675 1056.58 113.31 1041.02 144.46C1018.45 189.239 991.603 241.806 987.712 246.089C981.487 253.487 1028.18 235.965 1028.18 235.965C1028.18 235.965 977.207 339.93 949.582 367.576C921.569 395.222 926.238 425.204 926.238 425.204C926.238 425.204 925.46 476.213 896.279 497.629C875.658 512.814 945.692 524.496 1002.11 525.275C1055.41 528 1142.18 530.726 1189.64 522.549C1230.89 517.876 1264.35 508.531 1249.17 497.629Z" fill="#39A072"/>
<path d="M313.053 304.496C299.435 309.168 279.203 315.788 283.483 310.726C285.039 308.779 290.875 297.876 299.046 282.69C303.326 289.699 307.995 297.098 313.053 304.496Z" fill="#39A072"/>
<path d="M343.012 480.106C336.787 480.885 330.172 481.664 322.78 482.442C305.271 484 284.65 484.389 263.64 484.779C260.528 484.779 257.804 484.779 255.081 484.779C255.47 484.389 255.859 483.61 256.248 483.221C275.702 455.186 291.265 430.655 291.265 430.655C291.265 430.655 217.34 459.469 245.354 432.212C267.531 410.407 304.104 340.318 318.111 312.283C329.005 328.248 340.288 342.655 348.848 350.442C375.694 373.416 305.271 349.274 305.271 349.274C305.271 349.274 341.456 399.115 371.415 432.602C382.309 444.672 392.425 454.796 399.817 459.858C414.213 468.814 382.309 476.602 343.012 480.106Z" fill="#39A072"/>
<path d="M245.354 432.213C217.34 459.859 291.265 430.655 291.265 430.655C291.265 430.655 275.702 455.186 256.248 483.221C255.859 483.611 255.47 484.39 255.081 484.779C249.244 492.956 243.408 501.522 237.183 509.699C230.18 501.522 223.176 492.567 216.562 484.39C197.108 459.859 181.545 438.832 181.545 438.832C181.545 438.832 213.838 449.735 227.845 450.514C228.623 447.788 229.79 445.452 230.569 442.337C229.79 441.558 229.012 440.779 227.845 440C199.443 415.859 148.084 324.354 148.084 324.354C148.084 324.354 195.552 339.54 189.326 333.31C186.992 330.974 175.32 311.115 161.313 286.974C176.876 262.053 189.326 239.469 189.326 239.469C189.326 239.469 144.583 253.876 150.419 248.036C153.92 244.531 179.6 200.531 201.388 162.761C216.562 136.673 229.401 100.85 232.903 107.859C236.405 113.699 270.254 175.222 292.821 214.938C302.937 232.85 311.108 246.089 312.664 248.036C317.722 253.098 287.374 243.752 277.258 240.637C276.869 241.416 276.48 242.195 275.702 242.974C279.592 249.593 288.152 265.168 299.046 282.691C290.876 298.266 285.039 309.168 283.483 310.726C279.203 315.788 299.824 309.168 313.053 304.496C318.889 302.549 323.558 300.991 323.947 300.602C323.558 300.991 321.613 305.275 318.111 312.283C304.104 339.929 267.531 410.407 245.354 432.213Z" fill="#39A072"/>
<path d="M48.2692 432.213C20.2557 459.859 94.1803 430.655 94.1803 430.655C94.1803 430.655 78.6172 455.186 59.1634 483.221C58.7743 483.611 58.3852 484.39 57.9962 484.779C52.16 492.956 46.3238 501.522 40.0986 509.699C33.0952 501.522 26.0918 492.567 19.4775 484.39C0.0236855 459.859 -15.5394 438.832 -15.5394 438.832C-15.5394 438.832 16.754 449.735 30.7608 450.514C31.5389 447.788 32.7061 445.452 33.4843 442.337C32.7061 441.558 31.928 440.779 30.7608 440C2.35815 415.859 -49 324.354 -49 324.354C-49 324.354 -1.53262 339.54 -7.75785 333.31C-10.0923 330.974 -21.7646 311.115 -35.7714 286.974C-20.2083 262.053 -7.75785 239.469 -7.75785 239.469C-7.75785 239.469 -52.5017 253.876 -46.6655 248.036C-43.1639 244.531 -17.4848 200.531 4.30353 162.761C19.4775 136.673 32.3171 100.85 35.8187 107.859C39.3204 113.699 73.1701 175.222 95.7366 214.938C105.853 232.85 114.023 246.089 115.58 248.036C120.638 253.098 90.2895 243.752 80.1735 240.637C79.7845 241.416 79.3954 242.195 78.6172 242.974C82.508 249.593 91.0677 265.168 101.962 282.691C93.7912 298.266 87.9551 309.168 86.3988 310.726C82.1189 315.788 102.74 309.168 115.969 304.496C121.805 302.549 126.474 300.991 126.863 300.602C126.474 300.991 124.528 305.275 121.027 312.283C107.02 339.929 70.4466 410.407 48.2692 432.213Z" fill="#39A072"/>
<path d="M841.03 385.487C841.03 385.487 809.126 437.274 778 479.717C769.44 469.982 760.88 459.079 752.71 448.177C750.764 445.841 749.208 443.504 747.652 441.168C727.809 414.69 711.468 391.327 711.468 391.327C711.468 391.327 785.003 417.805 756.99 392.495C734.423 372.248 697.072 305.664 683.454 281.133C684.621 278.796 686.178 276.849 687.345 274.902C700.573 279.186 723.529 285.805 718.86 281.133C717.304 279.186 710.3 267.504 701.352 251.15C705.242 244.141 707.966 239.858 707.966 239.858C707.966 239.858 703.297 241.416 697.072 243.363C693.57 236.743 689.679 229.734 685.789 222.336C695.516 205.593 708.355 183.398 720.027 163.15C735.201 137.062 748.041 101.239 751.543 108.248C756.211 116.814 825.467 242.584 831.303 248.425C837.14 254.655 792.396 239.858 792.396 239.858C792.396 239.858 815.74 281.911 839.085 315.398C823.133 344.212 805.235 373.805 792.007 387.044C762.048 417.026 841.03 385.487 841.03 385.487Z" fill="#39A072"/>
<path d="M668.669 248.035C670.225 246.478 676.451 236.354 685.01 221.947C688.901 229.345 692.792 236.354 696.293 242.973C683.843 246.867 664.778 252.318 668.669 248.035Z" fill="#39A072"/>
<path d="M686.956 274.903C692.403 265.557 697.461 257.38 700.963 251.15C709.911 267.504 716.915 279.575 718.471 281.133C723.14 285.805 700.574 279.186 686.956 274.903Z" fill="#39A072"/>
<path d="M666.335 324.743C666.335 324.743 713.802 339.929 707.577 333.699C705.242 331.363 693.57 311.505 679.563 287.363C680.731 285.416 681.898 283.469 683.065 281.522C696.683 306.053 734.034 372.637 756.601 392.885C784.614 418.195 711.079 391.717 711.079 391.717C711.079 391.717 727.42 415.08 747.263 441.558C746.874 441.168 746.485 440.779 746.096 440.389C718.082 415.858 666.335 324.743 666.335 324.743Z" fill="#39A072"/>
<path d="M917.289 469.203C907.951 473.876 886.552 477.77 862.04 480.106C841.419 483.221 812.627 484.389 782.668 484.778C779.945 484.778 777.221 484.778 774.109 484.778C760.88 484.778 747.652 484.778 734.812 484.389C715.358 459.858 699.795 438.832 699.795 438.832C699.795 438.832 753.099 456.743 752.321 447.787C760.491 458.69 769.44 469.593 777.611 479.327C808.737 436.885 840.641 385.097 840.641 385.097C840.641 385.097 761.658 417.026 791.617 386.655C804.846 373.416 822.743 343.823 838.696 315.009C848.812 329.805 859.317 343.044 867.487 350.053C894.334 373.026 823.911 348.885 823.911 348.885C823.911 348.885 890.832 441.168 918.456 459.469C919.234 459.858 919.624 460.247 920.013 460.637C923.514 463.752 921.958 466.867 917.289 469.203Z" fill="#39A072"/>
<path d="M1065.92 555.257C1060.47 556.035 1055.02 556.814 1049.58 557.203C998.606 566.159 905.617 563.433 848.423 560.318C796.675 559.929 734.034 550.195 730.921 536.956C730.532 534.619 731.699 532.283 734.812 529.947C744.928 522.159 759.324 505.026 774.109 484.779C775.276 483.221 776.832 481.274 778 479.327C809.126 436.885 841.03 385.097 841.03 385.097C841.03 385.097 762.047 417.026 792.006 386.655C805.235 373.416 823.133 343.823 839.085 315.009C859.317 278.018 876.436 241.805 876.436 241.805C876.436 241.805 825.856 260.885 832.859 253.097C836.75 248.425 865.542 190.796 890.054 141.345C907.173 107.08 921.569 60.3538 925.46 69.3096C929.74 77.876 975.262 174.832 1000.16 224.283C1003.66 231.292 1006.78 237.522 1009.11 242.195C1012.22 248.035 1014.17 251.929 1015.34 252.708C1022.34 260.495 971.76 241.416 971.76 241.416C971.76 241.416 983.043 265.168 998.217 293.593C1016.5 327.858 1039.85 369.522 1056.19 385.876C1086.15 416.248 1007.17 384.318 1007.17 384.318C1007.17 384.318 1050.35 453.628 1084.59 497.628C1094.32 510.088 1103.27 520.212 1110.27 526.442C1111.44 527.221 1112.22 528 1113.38 528.779C1127.39 540.849 1101.71 549.805 1065.92 555.257Z" fill="#23885B"/>
<path d="M662.833 479.327C634.819 461.027 568.287 368.743 568.287 368.743C568.287 368.743 638.71 392.885 611.864 369.912C585.018 346.938 536.772 259.327 536.772 259.327C536.772 259.327 581.516 273.735 575.68 267.894C569.844 262.053 500.588 136.283 495.919 127.717C492.417 120.708 479.189 156.531 464.404 182.619C442.615 220 416.936 264.389 413.435 267.894C407.209 274.124 452.342 259.327 452.342 259.327C452.342 259.327 403.708 346.938 377.25 369.912C350.404 392.885 420.827 368.743 420.827 368.743C420.827 368.743 353.906 461.027 326.281 479.327C306.827 492.177 373.36 501.911 427.441 502.301C478.41 504.637 561.284 506.973 606.417 499.965C645.325 496.46 677.229 488.673 662.833 479.327Z" fill="#48B785"/>
<path d="M485.025 586.797C437.557 594.974 350.793 592.248 297.49 589.522C263.251 589.133 224.343 584.85 203.333 577.841C189.715 573.558 183.49 568.106 191.661 561.876C202.944 553.699 220.063 532.283 236.794 509.31C243.019 501.133 248.855 492.567 254.691 484.39C255.08 484 255.469 483.221 255.858 482.832C275.312 454.797 290.875 430.266 290.875 430.266C290.875 430.266 217.34 459.469 245.353 432.213C267.531 410.407 304.104 340.319 318.111 312.283C321.612 305.664 323.558 301.381 323.947 300.602C323.558 300.991 318.889 302.549 313.053 304.496C299.435 309.168 279.203 315.788 283.483 310.726C285.039 308.779 290.875 297.876 299.046 282.69C309.551 262.443 323.947 234.797 336.786 209.487C352.739 178.336 365.967 135.894 369.858 144.071C372.971 150.301 400.595 207.151 423.161 253.097C425.496 257.77 427.83 262.053 429.776 266.336C432.888 272.566 435.612 278.018 438.335 283.469C446.117 298.655 451.564 309.168 453.12 310.726C457.4 315.398 438.336 309.558 425.107 304.885C418.104 302.549 412.656 300.602 412.656 300.602C412.656 300.602 414.991 305.664 419.66 314.23C434.445 343.434 469.851 410.797 491.639 432.213C492.417 432.991 493.195 433.77 493.584 434.549C498.642 440.389 498.642 443.115 495.919 443.894C486.192 447.009 446.117 431.044 446.117 431.044C446.117 431.044 463.236 457.912 483.858 487.505C487.359 492.177 490.861 497.239 494.363 502.301C495.141 503.08 495.53 504.248 496.308 505.027C504.09 515.54 511.871 526.053 519.264 535.398C529.38 547.469 538.328 557.593 545.332 562.655C559.728 573.558 526.267 582.513 485.025 586.797Z" fill="#23885B"/>
<path d="M750.764 534.62C744.928 535.398 738.314 536.566 730.921 536.956C681.898 541.628 609.918 539.292 563.229 536.956C548.444 536.956 533.27 536.177 518.485 534.62C476.465 530.726 442.226 522.159 457.4 511.646C460.124 509.699 463.626 506.973 467.127 503.858C467.905 503.08 468.294 502.69 469.073 501.912C473.352 497.628 478.41 492.566 483.468 486.726C489.305 480.106 495.53 472.708 501.755 464.92C529.379 430.266 557.004 390.938 557.004 390.938C557.004 390.938 483.468 417.416 511.482 392.106C527.434 377.699 551.168 339.929 568.287 310.726C581.127 288.92 590.465 271.398 590.465 271.398C590.465 271.398 558.949 282.301 551.168 282.301C549.222 282.301 548.833 281.912 550.001 280.743C551.168 279.186 554.669 273.735 559.338 265.947C561.673 262.053 564.007 257.77 567.12 252.708C577.625 234.407 590.854 210.266 603.304 188.071C619.256 159.257 632.485 120.319 636.376 128.106C639.488 133.558 664.389 181.451 686.567 222.336C690.457 229.735 694.348 236.743 697.85 243.363C699.406 246.089 700.962 248.814 702.13 251.151C711.078 267.505 718.082 279.575 719.638 281.133C724.307 285.805 701.351 279.186 688.123 274.903C682.676 273.345 679.174 271.788 679.174 271.788C679.174 271.788 681.119 275.292 684.232 281.133C697.85 305.664 735.201 372.248 757.768 392.496C785.781 417.805 712.246 391.327 712.246 391.327C712.246 391.327 728.587 414.69 748.43 441.168C750.375 443.504 751.931 445.841 753.488 448.177C761.658 459.08 770.607 469.982 778.778 479.717C780.334 481.664 781.89 483.221 783.447 485.168C793.952 497.239 803.679 507.363 811.071 512.425C825.078 522.159 791.617 530.726 750.764 534.62Z" fill="#23885B"/>
<path d="M1348 540.46C1322.71 524.106 1262.79 440.778 1262.79 440.778C1262.79 440.778 1326.21 462.584 1302.09 441.946C1277.96 421.309 1234.39 342.265 1234.39 342.265C1234.39 342.265 1274.85 355.504 1269.4 350.053C1263.96 344.601 1201.7 231.292 1197.42 223.504C1193.92 217.274 1182.64 249.592 1169.02 272.955C1149.57 306.831 1126.22 346.548 1123.11 349.663C1117.66 355.115 1158.13 341.876 1158.13 341.876C1158.13 341.876 1114.55 420.531 1090.43 441.557C1066.31 462.194 1129.73 440.389 1129.73 440.389C1129.73 440.389 1069.42 523.716 1044.52 540.07C1027.01 551.752 1086.93 560.318 1135.56 560.707C1181.47 562.654 1256.18 564.991 1297.03 558.761C1332.05 556.035 1360.84 549.026 1348 540.46Z" fill="#23885B"/>
<path d="M1238.59 685.738C1213.3 669.384 1153.38 586.057 1153.38 586.057C1153.38 586.057 1216.8 607.862 1192.68 587.225C1168.56 566.588 1124.98 487.543 1124.98 487.543C1124.98 487.543 1165.45 500.782 1160 495.331C1154.55 489.88 1092.3 376.57 1088.02 368.782C1084.52 362.552 1073.23 394.871 1059.62 418.234C1040.16 452.11 1016.82 491.827 1013.71 494.942C1008.26 500.393 1048.72 487.154 1048.72 487.154C1048.72 487.154 1005.15 565.809 981.023 586.835C956.9 607.473 1020.32 585.667 1020.32 585.667C1020.32 585.667 960.013 668.995 935.112 685.349C917.604 697.03 977.521 705.596 1026.16 705.986C1072.07 707.933 1146.77 710.269 1187.62 704.039C1222.64 701.313 1251.43 694.304 1238.59 685.738Z" fill="#23885B"/>
<path d="M280.37 652.991C272.978 654.159 264.418 654.938 255.859 655.717C186.214 662.336 81.9411 659.221 14.6308 656.106C-65.519 655.328 -164.734 640.92 -135.553 622.23C-94.3107 595.363 2.18036 509.31 2.18036 509.31C2.18036 509.31 -99.7578 496.071 -60.0719 462.195C-20.3861 428.319 51.5931 300.602 51.5931 300.602C51.5931 300.602 -14.939 322.018 -5.99025 313.062C-0.932251 308 37.5864 243.363 69.4907 188.46C92.0571 149.912 111.122 97.7346 116.569 107.859C121.238 115.646 162.869 190.797 195.941 248.035C215.784 282.301 232.125 309.947 235.237 313.062C244.186 322.018 177.654 300.602 177.654 300.602C177.654 300.602 249.633 428.319 289.319 462.195C290.486 463.363 291.654 464.531 292.821 465.31C291.654 469.204 290.097 473.097 288.93 476.602C269.087 475.823 224.343 460.248 224.343 460.248C224.343 460.248 246.132 489.841 273.367 524.106C282.705 535.788 292.432 547.858 302.548 559.54C325.892 587.186 349.237 612.106 364.8 621.841C385.81 636.248 338.732 647.929 280.37 652.991Z" fill="#23885B"/>
</g>
<defs>
<clipPath id="clip0">
<rect width="1724" height="660" fill="white" transform="translate(-141)"/>
</clipPath>
</defs>
</svg>
