<svg width="510" height="255" viewBox="0 0 510 255" fill="none" xmlns="http://www.w3.org/2000/svg">
<path opacity="0.1" d="M510 163.789C509.991 174.531 506.773 185.144 500.569 194.894C494.364 204.645 485.32 213.302 474.062 220.268C462.803 227.234 449.597 232.344 435.355 235.243C421.114 238.143 406.175 238.764 391.571 237.064H229.575C223.319 237.687 217.01 238 210.695 238C149.152 238 97.0299 208.676 79.4004 168.219C75.1454 158.444 72.9867 148.252 73.0001 138C73.0001 82.7701 134.65 38 210.695 38C271.94 38 323.837 67.0332 341.722 107.199C360.171 95.7997 383.612 89.5519 407.835 89.5789C464.252 89.5789 510 122.803 510 163.789Z" fill="#22B573"/>
<path opacity="0.1" d="M471 216.372C459.922 225.01 447.18 231.275 433.569 234.774C419.959 238.274 405.771 238.934 391.894 236.714H230.042C223.791 237.57 217.488 238 211.178 238C149.69 238 97.6139 197.713 80 142.131C93.1742 114.01 127.03 94 166.724 94C205.405 94 238.54 113.006 252.397 139.999C259.21 138.762 266.122 138.142 273.048 138.146C313.138 138.146 347.272 158.564 360.161 187.129C370.837 183.898 381.935 182.267 393.09 182.292C425.788 182.292 454.526 195.871 471 216.372Z" fill="#22B573"/>
<path opacity="0.1" d="M193 14.5129C190.849 14.1096 188.626 14.3494 186.614 15.2019C185.406 15.7313 184.099 16.0032 182.777 16C181.456 15.9967 180.15 15.7184 178.945 15.183C177.519 14.5652 175.974 14.2607 174.417 14.2906C172.86 14.3205 171.328 14.6841 169.927 15.3562C169.127 15.7762 168.236 15.9971 167.33 16C163.675 16 160.632 12.3595 160 7.55575C160.73 7.02722 161.35 6.36522 161.828 5.60564C163.972 2.19105 167.292 0 171.02 0C174.748 0 178.027 2.1647 180.159 5.5454C180.799 6.56518 181.695 7.40449 182.759 7.9822C183.823 8.55992 185.019 8.8565 186.233 8.84328H186.328C189.234 8.84328 191.755 11.1473 193 14.5129Z" fill="#22B573"/>
<path opacity="0.1" d="M312 48.8706C310.501 48.5701 308.952 48.7498 307.549 49.3869C306.708 49.787 305.797 49.9938 304.876 49.9938C303.954 49.9938 303.043 49.787 302.202 49.3869C301.208 48.9236 300.131 48.6953 299.046 48.7176C297.961 48.7398 296.893 49.0122 295.916 49.516C295.359 49.8305 294.738 49.9966 294.107 50C291.559 50 289.44 47.2692 289 43.6632C289.509 43.268 289.941 42.7722 290.274 42.203C291.768 39.6417 294.066 38 296.678 38C299.29 38 301.565 39.6134 303.059 42.1587C303.506 42.9223 304.13 43.5508 304.871 43.9838C305.612 44.4168 306.445 44.6398 307.291 44.6313H307.359C309.369 44.6192 311.124 46.3496 312 48.8706Z" fill="#22B573"/>
<path opacity="0.1" d="M230 71.8768C231.5 71.5763 233.05 71.756 234.454 72.393C235.294 72.7932 236.205 73 237.126 73C238.047 73 238.958 72.7932 239.799 72.393C240.791 71.9304 241.866 71.7017 242.95 71.7225C244.034 71.7434 245.101 72.0134 246.077 72.514C246.635 72.828 247.255 72.994 247.886 72.9979C250.436 72.9979 252.56 70.2676 253 66.6622C252.49 66.2682 252.057 65.7724 251.725 65.2023C250.231 62.6414 247.913 61 245.314 61C242.716 61 240.428 62.6132 238.934 65.1579C238.486 65.9213 237.861 66.5492 237.119 66.9815C236.377 67.4137 235.542 67.6357 234.696 67.6261H234.632C232.614 67.6261 230.854 69.3562 230 71.8768Z" fill="#22B573"/>
<path d="M99.0701 167.576C98.9692 166.891 99.02 166.191 99.2187 165.527C99.4175 164.863 99.7594 164.251 100.22 163.733C100.681 163.216 101.25 162.805 101.887 162.532C102.524 162.258 103.213 162.127 103.905 162.148L134.271 131.446L140.27 139.832L108.535 167.374C108.422 168.535 107.888 169.615 107.032 170.409C106.176 171.202 105.059 171.654 103.893 171.679C102.726 171.704 101.591 171.3 100.702 170.544C99.813 169.788 99.2324 168.732 99.0701 167.576Z" fill="#FFB8B8"/>
<path d="M113.454 149.848L121.204 157.59C121.575 157.958 122.077 158.166 122.6 158.168C123.123 158.17 123.626 157.967 124 157.601L145.178 136.78C145.911 136.06 146.493 135.202 146.891 134.256C147.29 133.309 147.497 132.293 147.5 131.266C147.504 130.239 147.303 129.222 146.911 128.273C146.519 127.324 145.942 126.462 145.215 125.737C144.488 125.013 143.624 124.439 142.673 124.05C141.723 123.661 140.705 123.465 139.678 123.472C138.651 123.479 137.636 123.689 136.691 124.091C135.746 124.493 134.89 125.079 134.173 125.813L113.436 147.056C113.073 147.431 112.871 147.933 112.874 148.455C112.877 148.978 113.086 149.478 113.454 149.848Z" fill="#22B573"/>
<path d="M140.636 111.847C134.649 111.847 129.796 106.994 129.796 101.008C129.796 95.0212 134.649 90.1682 140.636 90.1682C146.622 90.1682 151.475 95.0212 151.475 101.008C151.475 106.994 146.622 111.847 140.636 111.847Z" fill="#FFB8B8"/>
<path d="M177.262 230.903L174.517 235.565L155.226 227.198L159.277 220.316L177.262 230.903Z" fill="#FFB8B8"/>
<path d="M176.439 228.817L171.034 238L171.034 238C170.582 238.768 170.285 239.619 170.161 240.502C170.038 241.385 170.089 242.284 170.313 243.147C170.536 244.01 170.928 244.821 171.464 245.533C172.001 246.245 172.673 246.844 173.442 247.296L173.632 247.408L182.482 232.374L176.439 228.817Z" fill="#2F2E41"/>
<path d="M145.461 247.7H140.05L137.476 226.831L145.462 226.831L145.461 247.7Z" fill="#FFB8B8"/>
<path d="M146.841 245.934L136.185 245.933H136.185C135.293 245.933 134.41 246.109 133.586 246.45C132.762 246.791 132.014 247.292 131.383 247.922C130.753 248.553 130.253 249.301 129.911 250.125C129.57 250.949 129.394 251.832 129.394 252.724V252.944L146.84 252.945L146.841 245.934Z" fill="#2F2E41"/>
<path d="M167.213 235.056C167.525 235.056 167.832 234.983 168.11 234.843C168.388 234.702 168.628 234.498 168.813 234.247L174.031 227.16C174.19 226.944 174.304 226.698 174.365 226.436C174.427 226.175 174.434 225.904 174.388 225.639C174.341 225.375 174.242 225.123 174.095 224.898C173.949 224.673 173.758 224.48 173.535 224.331L150.315 208.822L164.325 171.982L134.364 174.455L133.355 206.113C133.26 208.996 133.951 211.851 135.354 214.371C136.757 216.892 138.818 218.984 141.318 220.423L166.221 234.789C166.523 234.964 166.865 235.056 167.213 235.056Z" fill="#2F2E41"/>
<path d="M145.298 243.464C145.811 243.463 146.305 243.263 146.674 242.906C147.044 242.548 147.26 242.062 147.279 241.548L148.377 210.708L134.78 209.991L135.863 241.054C135.879 241.546 136.077 242.014 136.42 242.368C136.763 242.721 137.225 242.935 137.716 242.966L145.163 243.459C145.208 243.462 145.253 243.464 145.298 243.464Z" fill="#2F2E41"/>
<path d="M130.896 180.579C134.356 180.579 146.439 176.688 150.633 175.301C151.261 175.803 154.708 178.381 158.732 177.91C161.215 177.619 163.401 176.213 165.229 173.732C169.266 168.254 164.28 144.758 159.386 126.013C158.405 122.224 155.993 118.963 152.658 116.915C149.322 114.868 145.322 114.193 141.5 115.033C138.729 115.645 136.184 117.017 134.15 118.995C132.116 120.974 130.674 123.48 129.986 126.233C129.065 129.983 129.858 134.395 130.436 137.617C130.708 139.131 130.923 140.328 130.85 140.915C130.566 143.188 128.988 178.822 130.003 180.344C130.111 180.506 130.423 180.579 130.896 180.579Z" fill="#22B573"/>
<path d="M143.551 180.642C142.995 180.228 142.537 179.697 142.208 179.087C141.88 178.477 141.689 177.802 141.649 177.11C141.61 176.418 141.722 175.726 141.979 175.082C142.236 174.438 142.631 173.859 143.136 173.384L142.922 130.203L153.092 131.896L150.105 173.809C150.846 174.711 151.23 175.853 151.186 177.019C151.141 178.185 150.67 179.294 149.863 180.136C149.055 180.979 147.966 181.495 146.803 181.588C145.64 181.682 144.483 181.345 143.551 180.642Z" fill="#FFB8B8"/>
<path d="M141.199 157.934H152.154C152.677 157.933 153.178 157.726 153.55 157.358C153.922 156.989 154.133 156.49 154.14 155.967L154.409 126.269C154.418 125.242 154.224 124.223 153.837 123.272C153.45 122.32 152.878 121.455 152.155 120.726C151.432 119.997 150.571 119.419 149.623 119.025C148.675 118.63 147.658 118.428 146.631 118.429C145.604 118.43 144.587 118.635 143.64 119.032C142.693 119.429 141.833 120.009 141.112 120.74C140.39 121.471 139.821 122.337 139.436 123.289C139.052 124.242 138.86 125.261 138.872 126.288L139.213 155.971C139.221 156.494 139.433 156.992 139.805 157.359C140.176 157.726 140.677 157.933 141.199 157.934Z" fill="#22B573"/>
<path d="M143.396 111.802C148.358 111.811 153.04 107.889 153.9 103.001C154.208 101.081 154.07 99.1153 153.495 97.2574C152.871 95.1425 151.8 93.1859 150.356 91.5196C148.912 89.8533 147.127 88.516 145.122 87.5979C143.118 86.6797 140.939 86.202 138.734 86.1971C136.529 86.1921 134.348 86.6599 132.339 87.569C131.012 88.1698 129.704 89.0326 129.096 90.3571C128.488 91.6815 128.869 93.5326 130.199 94.1285C131.068 94.5179 132.158 94.3267 132.929 94.8857C134.037 95.6886 133.751 97.3974 133.257 98.6728C132.762 99.9482 132.203 101.492 133.032 102.58C133.805 103.594 135.349 103.562 136.565 103.18C137.781 102.799 138.981 102.16 140.249 102.29C142.099 102.479 143.428 104.319 143.674 106.162C143.92 108.004 143.34 109.846 142.769 111.615L143.396 111.802Z" fill="#2F2E41"/>
<path d="M233.932 208.085C233.932 208.085 233.932 232.218 228.393 238.548C228.393 238.548 227.206 241.713 226.811 242.9C226.59 243.575 226.325 244.236 226.02 244.878V246.46C226.02 246.46 215.337 245.273 214.15 242.504L216.128 240.13C216.128 240.13 216.524 239.735 216.128 238.548C216.061 238.419 216.029 238.273 216.037 238.128C216.044 237.982 216.091 237.841 216.172 237.72C216.253 237.598 216.365 237.501 216.497 237.438C216.628 237.375 216.774 237.348 216.92 237.361L219.689 231.031L219.294 204.921L221.272 168.92L238.284 168.128L233.932 208.085Z" fill="#707459"/>
<path d="M225.228 244.087C225.228 244.087 227.997 252.395 225.228 252.79C222.458 253.186 198.324 253.582 198.72 250.417C199.115 247.252 207.028 247.647 207.028 247.647L215.337 242.504L225.228 244.087Z" fill="#2F2E41"/>
<path d="M249.758 168.92C250.098 172.641 249.268 176.375 247.384 179.601C244.219 185.14 246.197 203.734 246.197 203.734L274.288 228.262C274.288 228.262 268.749 237.757 266.771 237.361C264.792 236.966 233.537 211.646 233.537 211.646L221.272 170.502L249.758 168.92Z" fill="#707459"/>
<path d="M273.902 227.214C273.902 227.214 282.402 229.323 281.254 231.873C280.105 234.424 267.519 255.019 265.058 252.991C262.596 250.962 267.166 244.491 267.166 244.491L267.27 234.721L273.902 227.214Z" fill="#2F2E41"/>
<path d="M234.328 104.435C229.302 104.435 225.228 100.361 225.228 95.3359C225.228 90.3106 229.302 86.2368 234.328 86.2368C239.353 86.2368 243.427 90.3106 243.427 95.3359C243.427 100.361 239.353 104.435 234.328 104.435Z" fill="#FFB8B8"/>
<path d="M241.488 98.5461L241.085 110.255L233.429 113.28C233.429 113.28 232.678 101.291 231.618 100.626C230.558 99.9616 241.488 98.5461 241.488 98.5461Z" fill="#FFB8B8"/>
<path d="M231.558 114.721C231.558 114.721 242.241 104.039 245.01 104.435C247.78 104.83 247.78 106.017 247.78 106.809C247.78 107.6 246.988 107.995 247.78 108.391C248.571 108.787 249.362 108.391 249.362 109.578C249.362 110.765 256.484 122.633 254.11 135.688C251.736 148.744 248.967 155.073 250.154 162.194C251.341 169.315 250.549 170.898 250.549 170.898C250.549 170.898 220.876 173.272 220.48 170.502C220.085 167.733 221.667 169.315 219.689 167.337C217.711 165.359 218.502 165.359 218.502 164.172C218.502 162.986 227.206 114.721 231.558 114.721Z" fill="#575A89"/>
<path d="M237.097 168.524C237.097 168.524 232.35 179.997 228.789 177.227C225.228 174.458 230.371 164.963 230.371 164.963L237.097 168.524Z" fill="#FFB8B8"/>
<path d="M248.571 115.512C248.571 115.512 257.867 116.576 254.406 133.649C250.945 150.722 237.493 170.502 237.493 170.502L228.393 166.151L240.262 142.809L237.493 128.172C237.493 128.172 235.91 114.325 248.571 115.512Z" fill="#575A89"/>
<path opacity="0.2" d="M240.461 143.007L227.405 164.765L228.591 165.952L240.461 143.007Z" fill="black"/>
<path opacity="0.2" d="M247.371 153.147L236.9 170.305H240.461L247.371 153.147Z" fill="black"/>
<path d="M238.447 100.803C237.675 100.491 236.874 100.252 236.057 100.091C234.641 99.6126 233.443 98.6423 232.681 97.3565C231.919 96.0707 231.643 94.5545 231.903 93.0826C232.016 92.7084 232.067 92.3182 232.053 91.9275C231.941 91.5059 231.706 91.127 231.379 90.8387C231.052 90.5503 230.646 90.3655 230.214 90.3076C229.35 90.2068 228.494 90.0438 227.653 89.8199C227.038 89.543 226.506 89.1106 226.109 88.5651C225.712 88.0197 225.464 87.3802 225.39 86.7098C225.261 85.3609 225.561 84.0056 226.248 82.8377L226.555 83.7191C227.022 83.3237 227.369 82.805 227.555 82.2222C227.904 82.2807 228.231 82.4276 228.506 82.6488C228.781 82.87 228.995 83.1582 229.127 83.4856C229.618 83.7755 229.689 82.5849 230.232 82.4093C230.471 82.3795 230.713 82.439 230.91 82.5765C232.005 83.0869 233.276 82.6505 234.45 82.3676C236.483 81.88 238.602 81.8775 240.636 82.3603C242.008 82.6296 243.275 83.2817 244.292 84.2412C245.048 85.0998 245.629 86.098 246.002 87.1797C247.14 89.7623 247.614 92.5884 247.382 95.401C247.097 97.6821 246.142 99.8275 244.639 101.567C243.856 102.469 241.301 105.616 239.9 105.08C238.14 104.405 240.521 101.9 238.447 100.803Z" fill="#2F2E41"/>
<path opacity="0.2" d="M223.717 184.327L234.128 211.623L233.602 211.823L223.191 184.528L223.717 184.327Z" fill="black"/>
<path d="M231.615 116.893C231.304 116.893 231.052 116.641 231.052 116.33C231.052 116.019 231.304 115.767 231.615 115.767C231.926 115.767 232.177 116.019 232.177 116.33C232.177 116.641 231.926 116.893 231.615 116.893Z" fill="#D0CDE1"/>
<path d="M226.831 132.088C226.891 132.088 226.949 132.069 226.998 132.033C227.046 131.997 227.082 131.947 227.099 131.89L231.883 116.413C231.905 116.342 231.898 116.265 231.864 116.199C231.829 116.133 231.769 116.083 231.698 116.061C231.626 116.039 231.549 116.046 231.483 116.081C231.417 116.116 231.368 116.175 231.346 116.247L226.562 131.724C226.549 131.766 226.546 131.81 226.553 131.854C226.561 131.897 226.578 131.938 226.604 131.974C226.631 132.009 226.665 132.038 226.704 132.058C226.743 132.078 226.787 132.088 226.831 132.088Z" fill="#D0CDE1"/>
<path d="M241.472 176.73C241.307 176.087 241.285 175.417 241.407 174.765C241.529 174.113 241.793 173.496 242.18 172.957C242.566 172.418 243.066 171.971 243.645 171.646C244.223 171.322 244.865 171.128 245.527 171.078L271.333 138.814L277.718 144.766L250.457 175.585C250.466 176.702 250.066 177.783 249.332 178.624C248.597 179.465 247.58 180.007 246.472 180.148C245.365 180.289 244.244 180.019 243.322 179.389C242.401 178.759 241.742 177.813 241.472 176.73Z" fill="#FFB8B8"/>
<path d="M266.382 143.939L274.538 150.185C274.77 150.363 275.037 150.488 275.322 150.553C275.607 150.618 275.903 150.621 276.189 150.561C276.475 150.502 276.745 150.381 276.98 150.208C277.216 150.034 277.411 149.812 277.553 149.557L282.521 140.601C283.423 139.409 283.816 137.907 283.613 136.426C283.41 134.944 282.628 133.604 281.438 132.698C280.248 131.792 278.748 131.395 277.265 131.594C275.783 131.793 274.441 132.571 273.532 133.759L266.203 140.865C265.993 141.068 265.829 141.314 265.723 141.587C265.617 141.859 265.571 142.151 265.588 142.443C265.605 142.735 265.685 143.019 265.822 143.278C265.959 143.536 266.15 143.761 266.382 143.939H266.382Z" fill="#CCCCCC"/>
<path d="M280.078 124.462C274.35 124.462 269.707 119.819 269.707 114.091C269.707 108.364 274.35 103.72 280.078 103.72C285.806 103.72 290.449 108.364 290.449 114.091C290.449 119.819 285.806 124.462 280.078 124.462Z" fill="#FFB8B8"/>
<path d="M257.941 248.616H252.764L253.257 238.927L260.897 238.927L257.941 248.616Z" fill="#FFB8B8"/>
<path d="M259.261 246.926L249.066 246.926H249.066C248.212 246.926 247.368 247.094 246.579 247.42C245.791 247.747 245.075 248.225 244.472 248.828C243.868 249.432 243.39 250.148 243.063 250.936C242.737 251.724 242.569 252.569 242.569 253.422V253.633L259.26 253.634L259.261 246.926Z" fill="#2F2E41"/>
<path d="M313.134 241.287L308.73 244.007L304.057 235.505L309.386 232.171L313.134 241.287Z" fill="#FFB8B8"/>
<path d="M313.369 239.155L304.696 244.512L304.695 244.513C303.969 244.961 303.339 245.548 302.84 246.24C302.341 246.932 301.983 247.716 301.787 248.546C301.591 249.376 301.56 250.237 301.697 251.079C301.833 251.921 302.134 252.729 302.583 253.454L302.693 253.634L316.894 244.862L313.369 239.155Z" fill="#2F2E41"/>
<path d="M258.315 245.775C258.7 245.775 259.075 245.658 259.392 245.439C259.709 245.22 259.951 244.91 260.087 244.55L278.812 199.781C278.853 199.672 278.922 199.575 279.014 199.503C279.105 199.431 279.215 199.385 279.33 199.371C279.446 199.357 279.563 199.375 279.669 199.423C279.776 199.472 279.866 199.548 279.932 199.645L305.656 240.169C305.908 240.546 306.287 240.82 306.724 240.942C307.16 241.064 307.627 241.024 308.037 240.831L311.557 239.188C312.008 238.976 312.358 238.595 312.531 238.128C312.705 237.661 312.689 237.144 312.487 236.689L291.412 189.71C291.872 188.591 296.36 177.095 289.464 171.416L289.416 171.386L270.715 163.044L270.243 177.389L251.603 242.063C251.533 242.306 251.512 242.561 251.542 242.813C251.572 243.064 251.651 243.307 251.777 243.528C251.902 243.748 252.069 243.941 252.27 244.095C252.471 244.25 252.701 244.363 252.946 244.427L257.828 245.712C257.987 245.754 258.15 245.775 258.315 245.775Z" fill="#353267"/>
<path d="M270.432 142.059C271.144 139.201 272.153 136.32 273.506 134.99C274.003 134.505 274.471 133.99 274.905 133.449C275.815 132.303 276.96 131.365 278.263 130.698C277.786 130.432 277.507 130.116 277.507 129.776C277.507 128.843 279.586 128.087 282.151 128.087C284.717 128.087 286.796 128.843 286.796 129.776C286.79 129.884 286.762 129.99 286.715 130.088C286.667 130.185 286.601 130.273 286.52 130.345C288.195 131.027 289.651 132.157 290.728 133.61C291.806 135.063 292.464 136.784 292.631 138.585C293.231 145.01 293.406 153.222 291.303 158.417C289.54 162.713 289.4 167.503 290.909 171.895C291.011 172.2 291.024 172.529 290.945 172.842C290.866 173.155 290.699 173.438 290.464 173.659C290.229 173.88 289.936 174.029 289.619 174.088C289.302 174.147 288.975 174.114 288.676 173.993L270.119 166.515C269.807 166.389 269.539 166.173 269.351 165.894C269.162 165.615 269.062 165.285 269.062 164.949V153.591C269.047 149.706 269.507 145.833 270.432 142.059Z" fill="#CCCCCC"/>
<path d="M305.936 188.836C305.29 188.686 304.685 188.396 304.163 187.987C303.641 187.578 303.216 187.059 302.916 186.468C302.616 185.876 302.45 185.226 302.429 184.563C302.407 183.9 302.532 183.241 302.793 182.631L288.274 144.344L295.637 142.443L309.066 180.336C310.061 180.843 310.835 181.697 311.243 182.736C311.65 183.776 311.662 184.928 311.276 185.976C310.891 187.024 310.134 187.894 309.15 188.421C308.166 188.948 307.022 189.096 305.936 188.836V188.836Z" fill="#FFB8B8"/>
<path d="M288.335 151.608L297.638 147.253C297.903 147.129 298.138 146.95 298.327 146.727C298.516 146.504 298.655 146.243 298.734 145.962C298.813 145.68 298.831 145.385 298.785 145.096C298.74 144.808 298.633 144.532 298.472 144.288L292.818 135.749C292.175 134.4 291.024 133.359 289.617 132.857C288.209 132.354 286.659 132.43 285.307 133.067C283.955 133.705 282.911 134.853 282.404 136.259C281.896 137.665 281.967 139.214 282.6 140.569L285.524 150.349C285.608 150.629 285.751 150.888 285.944 151.107C286.136 151.327 286.374 151.503 286.641 151.622C286.908 151.742 287.197 151.802 287.489 151.8C287.782 151.797 288.07 151.732 288.335 151.608Z" fill="#CCCCCC"/>
<path d="M270.552 111.539C270.084 111.594 269.611 111.509 269.192 111.293C268.427 110.792 268.502 109.654 268.761 108.777C269.406 106.675 270.57 104.77 272.146 103.236C273.722 101.703 275.658 100.591 277.777 100.004C279.253 99.6113 281.121 99.6265 281.966 100.899C284.089 99.4855 286.648 98.879 289.179 99.1899C291.71 99.5008 294.047 100.709 295.764 102.594C297.496 104.496 298.489 106.975 299.003 109.496C299.889 113.837 303.684 122.793 301.582 126.694C300.183 129.29 293.745 127.267 291.022 128.398C288.298 129.529 284.988 129.402 282.569 127.716C280.15 126.03 278.88 122.7 279.917 119.94C280.318 118.872 281.013 117.945 281.562 116.946C282.11 115.946 282.521 114.79 282.276 113.676C281.895 111.942 273.709 111.474 270.552 111.539Z" fill="#2F2E41"/>
<path d="M355.708 242.251L360.356 234.448L353.788 231.821L353.186 232.59C351.681 234.512 350.338 238.573 348.511 240.152" fill="#FFB8B8"/>
<path d="M345.9 242.152C346.19 242.152 346.425 241.917 346.425 241.627C346.425 241.337 346.19 241.101 345.9 241.101C345.61 241.101 345.375 241.337 345.375 241.627C345.375 241.917 345.61 242.152 345.9 242.152Z" fill="white"/>
<path d="M347.588 240.32C347.878 240.32 348.114 240.084 348.114 239.794C348.114 239.504 347.878 239.269 347.588 239.269C347.298 239.269 347.063 239.504 347.063 239.794C347.063 240.084 347.298 240.32 347.588 240.32Z" fill="white"/>
<path d="M407.649 231.968L405.418 223.164L398.915 225.951L399.033 226.92C399.329 229.343 401.251 233.164 401.076 235.573" fill="#FFB8B8"/>
<path d="M400.272 238.988C400.563 238.988 400.798 238.752 400.798 238.462C400.798 238.172 400.563 237.937 400.272 237.937C399.982 237.937 399.747 238.172 399.747 238.462C399.747 238.752 399.982 238.988 400.272 238.988Z" fill="white"/>
<path d="M400.17 236.498C400.46 236.498 400.696 236.263 400.696 235.973C400.696 235.683 400.46 235.447 400.17 235.447C399.88 235.447 399.645 235.683 399.645 235.973C399.645 236.263 399.88 236.498 400.17 236.498Z" fill="white"/>
<path d="M368.239 121.466L371.129 129.611L378.749 125.145C378.749 125.145 374.807 120.415 375.07 117.788L368.239 121.466Z" fill="#FFB8B8"/>
<path d="M369.158 122.648C373.222 122.648 376.515 119.355 376.515 115.292C376.515 111.228 373.222 107.935 369.158 107.935C365.095 107.935 361.802 111.228 361.802 115.292C361.802 119.355 365.095 122.648 369.158 122.648Z" fill="#FFB8B8"/>
<path d="M379.8 124.093L378.258 124.524C378.258 124.524 375.07 124.356 373.494 126.721C371.917 129.085 370.751 128.545 370.751 128.545L364.297 138.282C364.297 138.282 362.196 142.223 362.984 146.69C363.772 151.156 366.399 157.462 366.399 157.462C366.399 157.462 383.215 159.039 383.741 158.25C384.266 157.462 383.741 152.207 383.741 152.207L385.843 128.823C385.843 128.823 383.478 124.882 382.164 124.882C381.316 124.853 380.495 124.579 379.8 124.093Z" fill="#BF1700"/>
<path d="M385.054 156.674C385.054 156.674 380.588 156.411 378.748 156.937C376.909 157.462 365.874 156.937 365.874 156.937L362.721 176.643L352.474 232.345L363.509 236.549L376.646 205.282L378.223 209.749L398.192 231.557L408.702 226.828L391.36 197.925L385.843 177.694C385.843 177.694 389.258 166.133 384.529 159.039L385.054 156.674Z" fill="#530A00"/>
<path opacity="0.2" d="M367.173 177.345L366.677 177.518L376.399 205.369L376.895 205.196L367.173 177.345Z" fill="black"/>
<path d="M382.789 103.679C382.37 102.024 380.971 100.949 379.664 101.28C379.649 101.284 379.636 101.29 379.621 101.294C379.769 101.212 379.927 101.149 380.091 101.107C381.398 100.777 382.797 101.851 383.215 103.507C383.629 105.144 382.929 106.734 381.65 107.089C382.652 106.534 383.154 105.124 382.789 103.679Z" fill="#2F2E41"/>
<path d="M382.481 106.256C383.799 105.171 384.174 103.447 383.318 102.406C383.308 102.394 383.297 102.385 383.287 102.373C383.424 102.472 383.548 102.588 383.656 102.718C384.513 103.76 384.138 105.483 382.819 106.568C381.515 107.641 379.778 107.686 378.911 106.681C379.841 107.35 381.33 107.203 382.481 106.256Z" fill="#2F2E41"/>
<path d="M383.249 106.767C383.966 105.625 383.374 103.963 381.928 103.055C380.482 102.147 378.728 102.336 378.011 103.478C377.294 104.62 377.885 106.282 379.332 107.19C380.778 108.098 382.532 107.908 383.249 106.767Z" fill="#2F2E41"/>
<path d="M378.089 105.917C378.781 105.917 379.459 106.116 380.042 106.491C380.554 106.807 380.981 107.244 381.284 107.763C380.592 107.763 379.914 107.564 379.331 107.19C378.819 106.873 378.393 106.437 378.089 105.917Z" fill="#22B573"/>
<path d="M368.108 104.782C366.992 104.782 366.641 105.772 366.854 106.811C368.065 112.628 367.588 118.67 365.48 124.225H372.23L373.494 121.234L373.983 124.225H382.821V121.209C385.796 108.991 379.488 103.029 368.108 104.782Z" fill="#2F2E41"/>
<path d="M367.001 105.044H366.323C365.66 105.044 365.004 105.175 364.392 105.429C363.779 105.682 363.223 106.054 362.754 106.523C362.286 106.991 361.914 107.548 361.66 108.16C361.406 108.773 361.276 109.429 361.276 110.092V111.876L365.68 111.339L366.005 110.037L366.312 111.262L372.049 110.562V110.092C372.049 109.429 371.918 108.773 371.664 108.16C371.411 107.548 371.039 106.991 370.57 106.523C370.102 106.054 369.545 105.682 368.933 105.429C368.32 105.175 367.664 105.044 367.001 105.044Z" fill="#2F2E41"/>
<path opacity="0.2" d="M378.123 137.568L375.495 157.011L372.74 157.155L378.123 137.568Z" fill="black"/>
<path d="M375.406 160.978L370.186 176.639C370.186 176.639 359.31 188.82 365.4 188.82C371.491 188.82 374.536 177.944 374.536 177.944L381.932 162.283L375.406 160.978Z" fill="#FFB8B8"/>
<path d="M380.844 125.522C380.844 125.522 384.383 123.99 386.531 127.847C388.679 131.703 387.805 146.404 387.37 148.579C386.935 150.754 383.889 164.241 383.889 164.241L373.449 162.065C373.449 162.065 372.578 155.975 375.189 156.41L380.844 125.522Z" fill="#BF1700"/>
<path d="M408.108 231.212L399.181 236.135L399.181 236.136C398.434 236.548 397.775 237.103 397.243 237.769C396.71 238.436 396.314 239.201 396.077 240.021C395.84 240.84 395.767 241.699 395.862 242.546C395.957 243.394 396.218 244.215 396.63 244.962L396.732 245.147L411.348 237.085L408.108 231.212Z" fill="#2F2E41"/>
<path d="M356.418 242.181L347.441 237.349L347.441 237.348C346.689 236.944 345.866 236.691 345.017 236.605C344.168 236.519 343.311 236.601 342.494 236.846C341.676 237.092 340.916 237.495 340.254 238.035C339.593 238.574 339.045 239.238 338.64 239.99L338.54 240.175L353.238 248.088L356.418 242.181Z" fill="#2F2E41"/>
<path d="M460.691 174.173C460.901 174.128 461.098 174.035 461.267 173.901C461.436 173.767 461.571 173.596 461.662 173.401L465.334 165.637C465.474 165.341 465.506 165.005 465.425 164.688C465.344 164.371 465.154 164.092 464.889 163.9L460.645 160.817C460.374 160.619 460.042 160.525 459.707 160.551C459.373 160.578 459.059 160.724 458.824 160.963L453.211 166.598C453.074 166.736 452.967 166.901 452.897 167.082C452.826 167.263 452.794 167.457 452.803 167.651C452.811 167.845 452.86 168.036 452.946 168.21C453.032 168.385 453.153 168.539 453.302 168.664L459.487 173.875C459.651 174.014 459.845 174.113 460.054 174.165C460.263 174.217 460.481 174.22 460.691 174.173Z" fill="#22B573"/>
<path d="M483.954 247.779L480.259 248.784L474.625 235.014L480.077 233.53L483.954 247.779Z" fill="#FFB8B8"/>
<path d="M474.069 254.152L485.678 250.994L484.458 246.508L477.042 248.526C475.93 248.828 474.983 249.56 474.411 250.561C473.838 251.562 473.687 252.749 473.989 253.861L474.069 254.152Z" fill="#2F2E41"/>
<path d="M452.374 250.597L448.546 250.597L446.724 235.831L452.375 235.831L452.374 250.597Z" fill="#FFB8B8"/>
<path d="M441.162 254.152L453.194 254.152L453.194 249.504L445.509 249.503C444.356 249.503 443.251 249.961 442.436 250.776C441.62 251.591 441.162 252.697 441.162 253.85L441.162 254.152Z" fill="#2F2E41"/>
<path d="M452.718 150.856C449.723 147.861 449.723 143.005 452.718 140.009C455.713 137.014 460.569 137.014 463.564 140.009C466.559 143.005 466.559 147.861 463.564 150.856C460.569 153.851 455.713 153.851 452.718 150.856Z" fill="#FFB8B8"/>
<path d="M453.532 238.854L457.819 207.507C457.851 207.275 457.957 207.058 458.121 206.891C458.285 206.723 458.499 206.613 458.731 206.576C458.963 206.539 459.201 206.578 459.409 206.687C459.617 206.796 459.784 206.969 459.886 207.181L474.476 237.441C474.624 237.746 474.877 237.986 475.188 238.12C475.499 238.254 475.847 238.271 476.17 238.17L481.792 236.37C482.14 236.26 482.432 236.019 482.604 235.697C482.777 235.375 482.817 234.999 482.716 234.648C475.877 210.502 469.972 192.538 463.383 183.349C463.357 183.314 463.331 183.28 463.302 183.247L461.841 181.542C461.709 181.388 461.546 181.264 461.361 181.179C461.177 181.095 460.977 181.051 460.774 181.051H450.016C449.735 181.05 449.46 181.134 449.227 181.292C448.995 181.449 448.815 181.673 448.711 181.934L448.431 182.635C448.408 182.691 448.389 182.749 448.374 182.807C444.857 196.192 443.946 213.969 445.504 238.75C445.527 239.107 445.685 239.442 445.946 239.687C446.207 239.932 446.551 240.068 446.908 240.069H452.14C452.479 240.068 452.807 239.944 453.063 239.721C453.318 239.498 453.485 239.19 453.532 238.854Z" fill="#FC6681"/>
<path d="M463.903 182.713C465.453 180.232 472.848 167.418 466.21 158.74C466.091 158.586 466.014 158.404 465.987 158.212L465.724 156.194C465.7 156.005 465.637 155.823 465.541 155.66C465.444 155.496 465.315 155.353 465.162 155.241C465.009 155.129 464.834 155.048 464.649 155.006C464.463 154.963 464.271 154.958 464.084 154.992C461.777 155.412 457.43 156.732 454.247 160.855C454.095 161.054 453.999 161.29 453.969 161.538L453.794 162.943C453.772 163.128 453.702 163.304 453.592 163.454C453.482 163.604 453.335 163.723 453.165 163.8C451.135 164.722 446.592 168.314 448.249 181.723C448.288 182.057 448.447 182.365 448.695 182.592C448.943 182.819 449.264 182.949 449.6 182.958L462.668 183.371C462.683 183.371 462.698 183.371 462.712 183.371C462.95 183.371 463.184 183.31 463.392 183.195C463.601 183.08 463.776 182.914 463.903 182.713Z" fill="#575A89"/>
<path d="M469.203 203.264C469.535 202.903 469.783 202.473 469.931 202.006C470.079 201.538 470.123 201.044 470.059 200.558C469.996 200.072 469.826 199.605 469.562 199.192C469.299 198.778 468.948 198.427 468.534 198.164L464.629 169.011L457.783 171.529L463.746 199.378C463.35 200.103 463.233 200.947 463.418 201.752C463.603 202.557 464.076 203.266 464.749 203.745C465.421 204.224 466.246 204.439 467.067 204.351C467.888 204.262 468.648 203.875 469.203 203.264Z" fill="#FFB8B8"/>
<path d="M466.74 172.594C466.884 172.434 466.988 172.242 467.046 172.035C467.103 171.827 467.111 171.609 467.07 171.398L465.465 162.961C465.404 162.639 465.232 162.349 464.98 162.14C464.727 161.932 464.41 161.818 464.083 161.818L458.837 161.827C458.502 161.826 458.177 161.946 457.923 162.164C457.668 162.383 457.501 162.686 457.451 163.017L456.234 170.877C456.204 171.07 456.215 171.266 456.265 171.454C456.315 171.641 456.403 171.817 456.524 171.969C456.646 172.121 456.797 172.246 456.969 172.336C457.141 172.427 457.33 172.48 457.524 172.494L465.591 173.062C465.806 173.078 466.021 173.044 466.221 172.962C466.42 172.881 466.598 172.755 466.74 172.594L466.74 172.594Z" fill="#575A89"/>
<path d="M466.58 140.663C466.01 138.936 465.589 137.163 465.323 135.365C465.239 134.317 465.507 133.191 466.27 132.468C467.697 131.116 470.122 131.76 471.614 133.04C473.771 134.889 474.847 137.731 475.254 140.544C475.66 143.356 475.482 146.215 475.579 149.055C475.677 151.895 476.083 154.815 477.531 157.26C478.979 159.704 481.665 161.581 484.499 161.373C485.643 161.311 486.729 160.851 487.569 160.072C487.981 159.68 488.293 159.195 488.479 158.657C488.665 158.119 488.72 157.544 488.638 156.981C490.086 159.575 489.352 163.09 487.192 165.129C485.031 167.167 481.708 167.744 478.868 166.873C476.028 166.003 473.691 163.82 472.294 161.198C470.898 158.576 470.387 155.547 470.461 152.578C470.518 150.297 470.905 147.998 470.52 145.75C470.135 143.502 468.728 141.219 466.509 140.689L466.58 140.663Z" fill="#2F2E41"/>
<path d="M459.409 152.563C459.711 152.085 459.905 151.549 459.98 150.99C460.056 150.43 460.009 149.861 459.845 149.321C459.681 148.782 459.402 148.283 459.028 147.861C458.653 147.438 458.193 147.102 457.676 146.873C456.286 146.258 454.677 146.493 453.185 146.201C450.511 145.678 448.31 143.235 448.151 140.515C447.992 137.795 449.955 135.077 452.607 134.452C453.665 134.203 454.768 134.261 455.853 134.321C456.896 134.379 457.939 134.437 458.976 134.556C461.028 134.791 463.104 135.288 464.812 136.45C466.52 137.611 467.81 139.535 467.788 141.601C467.763 143.958 466.651 148.651 465.104 150.431C463.613 152.148 462.477 152.767 460.109 152.884L459.409 152.563Z" fill="#2F2E41"/>
<g clip-path="url(#clip0)">
<path d="M55.6089 251.074C55.6089 251.074 59.8222 247.432 60.3377 245.655C60.8889 243.79 58.1155 240.396 56.4089 239.455C51.9644 237.039 50.4533 231.993 49.9378 228.6C50.1511 228.387 50.4355 228.067 50.7911 227.694C51.36 227.09 52.1066 226.308 53.0133 225.384C56.3555 221.938 61.7777 216.519 67.7155 211.296C67.9466 211.1 68.16 210.905 68.3911 210.71C68.6755 210.461 68.96 210.212 69.2444 209.981C72.5866 211.527 78.1333 214.121 84.0355 217.07C88.7111 219.415 91.6444 220.481 93.5644 220.801C93.8844 220.854 94.1689 220.889 94.4177 220.889C94.2044 221.351 94.0622 221.636 94.0622 221.653C94.0977 221.618 94.3822 221.351 94.88 220.889C95.9822 220.872 96.64 220.481 97.1555 219.966C97.6 219.521 97.92 218.9 98.1333 218.26C98.5422 217.94 98.9866 217.621 99.4666 217.301C99.9466 218.633 100.356 220.641 99.7155 222.933C98.5777 227.072 95.3066 227.125 95.3066 227.125L94.9155 226.894L92.8889 225.704L94.4355 228.475C94.4355 228.475 91.0933 230.234 87.9644 227.107C84.96 224.105 84.2311 222.151 84.1955 222.026C84.2489 222.24 85.4577 226.859 86.6489 228.067C86.6489 228.067 83.1822 229.612 81.1377 226.841C79.0933 224.07 78.1866 220.516 78.1866 220.516L78.9689 227.019C78.9689 227.019 75.7866 225.793 74.0444 220.747L74.9511 225.526C74.9511 225.526 71.8755 221.263 70.5244 216.448C71.3422 219.983 71.6089 223.927 71.1111 226.628C70.0622 232.313 77.8489 230.039 79.7333 233.716C81.5111 237.181 74.6844 253.152 74.6844 253.152C74.6844 253.152 73.8489 254.183 73.2266 254.911H64.9777C65.2089 253.49 66.0444 250.345 68.9955 249.368C72.8533 248.089 72.3022 239.881 72.3022 239.881C72.3022 239.881 69.3333 240.29 65.7066 239.686L65.9911 244.145L59.6089 254.911L59.5555 255.018H52.0889C52.0889 255.018 51.5733 255.089 51.3955 254.911C51.3244 254.858 51.3066 254.751 51.36 254.627C52.6755 251.287 55.6089 251.074 55.6089 251.074ZM17.9378 253.543C18.9333 251.82 22.3111 250.985 22.3111 250.985L23.1289 235.44L22.6489 231.602C22.5066 231.496 22.3466 231.407 22.2222 231.3C22.3466 231.176 22.4533 231.052 22.5778 230.945C25.76 227.676 29.1022 224.478 32.4444 221.618C38.0622 216.803 43.6622 212.948 48.4977 211.367C62.1866 206.943 56.0533 218.917 52.0355 225.295C51.36 226.361 50.7555 227.267 50.3111 227.925C50.1689 228.138 50.0266 228.316 49.92 228.475C49.9022 228.369 49.8844 228.245 49.8666 228.138C45.7422 230.234 37.9022 233.859 32.16 234.303C31.8933 236.097 31.68 237.625 31.68 238.211C31.68 239.721 26.6489 251.873 25.4044 254.858H17.2622C17.3689 254.574 17.5822 254.147 17.9378 253.543Z" fill="#9BC1F9"/>
<path d="M93.5465 220.783L94.8621 226.877L95.2532 227.108C95.2532 227.108 98.5243 227.054 99.6621 222.915C100.284 220.623 99.8932 218.615 99.4132 217.283C99.0221 216.199 98.5776 215.542 98.5776 215.542C98.5776 215.542 98.5421 216.928 98.0976 218.242C97.8843 218.882 97.5643 219.504 97.1199 219.948C96.6043 220.463 95.9643 220.854 94.8443 220.872C94.7021 220.872 94.5421 220.872 94.3821 220.872C94.151 220.872 93.8665 220.836 93.5465 220.783Z" fill="#3C8F7C"/>
<path d="M18.969 182.231L26.3823 186.832L22.1334 190.243C22.1334 190.243 20.8001 186.779 17.7245 187.792L18.969 182.231Z" fill="#F47458"/>
<path d="M65.991 208.507V208.542L66.3999 210.603C66.3999 210.603 66.9688 210.71 67.6976 211.296C68.5865 212.007 69.7243 213.392 70.4354 216.111C70.471 216.217 70.4887 216.324 70.5243 216.43C71.8754 221.263 74.951 225.509 74.951 225.509L74.0443 220.73C75.7687 225.775 78.9687 227.001 78.9687 227.001L78.1865 220.499C78.1865 220.499 79.0932 224.052 81.1376 226.823C83.1821 229.595 86.6487 228.049 86.6487 228.049C85.4399 226.841 84.2487 222.222 84.1954 222.009C84.2487 222.133 84.9599 224.088 87.9643 227.09C91.0754 230.199 94.4354 228.458 94.4354 228.458L92.8887 225.704L94.8621 226.877L95.2532 227.108C95.2532 227.108 98.5243 227.054 99.6621 222.915C100.284 220.623 99.8932 218.616 99.4132 217.283C99.0221 216.199 98.5776 215.542 98.5776 215.542C98.5776 215.542 98.5421 216.928 98.0976 218.243C97.8843 218.882 97.5643 219.504 97.1199 219.948C96.6043 220.463 95.9643 220.854 94.8443 220.872C94.7021 220.872 94.5421 220.872 94.3821 220.872C94.1154 220.854 93.831 220.819 93.5287 220.783C91.6087 220.463 88.6754 219.397 83.9999 217.052C78.0976 214.103 72.551 211.509 69.2087 209.964C67.1999 209.04 65.991 208.507 65.991 208.507Z" fill="#B75742"/>
<path d="M49.8668 228.174C49.8845 228.28 49.9023 228.387 49.9201 228.511C49.9201 228.547 49.9379 228.582 49.9379 228.618C50.4534 232.011 51.9823 237.057 56.409 239.473C58.1157 240.396 60.889 243.808 60.3379 245.673C59.8223 247.45 55.609 251.092 55.609 251.092C55.609 251.092 52.6757 251.305 51.3601 254.591C51.3068 254.734 51.3245 254.822 51.3957 254.876C51.5912 255.053 52.089 254.982 52.089 254.982H59.5557L59.609 254.876L65.9912 244.11L65.7068 239.65L65.5645 237.287L61.3868 226.681L53.369 225.402L53.0134 225.384L52.0357 225.331L49.689 225.189C49.6712 225.171 49.6357 226.397 49.8668 228.174Z" fill="#B75742"/>
<path d="M14.4535 218.615C14.4535 218.615 4.88905 232.97 2.79127 236.097C1.33349 238.265 1.33349 241 1.33349 241C1.33349 241 1.74238 245.371 2.61349 246.241C2.75571 246.384 2.96904 246.472 3.25349 246.543C5.44015 247.094 7.39571 245.016 6.77349 242.848C6.48904 241.835 6.25794 240.929 6.25794 240.556C6.25794 239.561 6.72015 239.473 6.72015 239.473L17.2802 233.379L20.7468 223.27L14.4535 218.615Z" fill="#B75742"/>
<path d="M17.2622 254.875H25.4044C26.6488 251.891 31.6799 239.739 31.6799 238.229C31.6799 237.643 31.8755 236.115 32.1599 234.32C32.6755 230.874 33.4221 226.415 33.4221 225.58C33.4221 224.958 33.1555 223.234 32.4266 221.618C31.6799 219.948 30.4355 218.367 28.4977 218.136C27.0399 217.958 25.671 218.438 24.5332 219.113C24.391 219.184 24.2666 219.273 24.1421 219.361C23.9821 219.468 23.8221 219.575 23.6621 219.699C23.4844 219.823 23.3244 219.948 23.1821 220.072C22.951 220.268 22.7377 220.445 22.5421 220.623C22.3288 220.818 22.151 220.996 21.991 221.156C21.6177 221.529 21.4221 221.795 21.4221 221.795L21.9199 225.757L21.9733 226.184L22.5777 230.963L22.6666 231.62L23.1466 235.457L22.3288 251.003C22.3288 251.003 18.951 251.82 17.9555 253.543C17.5822 254.147 17.3688 254.573 17.2622 254.875Z" fill="#F47458"/>
<path d="M18.9332 182.338C15.8755 181.822 12.3555 182.817 12.3555 182.817L10.2932 185.606L-0.000106812 187.685C-0.000106812 187.685 1.06657 193.583 1.86656 194.383C3.05767 195.573 12.1954 197.243 12.1954 197.243C12.1954 197.243 12.1599 199.908 12.1243 203.301C12.1066 204.492 12.0888 205.771 12.0888 207.05C12.0532 210.123 12.0355 213.215 12.0355 215.169C12.0355 217.798 12.2132 219.912 12.4799 221.582C13.1377 225.686 14.2577 227.143 14.2577 227.143C14.2577 225.953 15.0221 225.42 15.0221 225.42C14.7021 228.102 16.6932 229.826 18.1688 230.732C19.0043 231.229 19.6621 231.478 19.6621 231.478L19.1466 228.156C19.1999 228.245 20.0354 229.772 22.1866 231.336C22.3288 231.442 22.471 231.531 22.6132 231.638C24.1599 232.668 26.311 233.681 29.2088 234.232C30.0977 234.392 31.0754 234.427 32.1421 234.356C37.8843 233.93 45.7421 230.305 49.8488 228.191C49.991 228.12 50.151 228.049 50.2754 227.978C50.4354 227.889 50.5954 227.8 50.7554 227.729C51.5199 227.321 52.0888 227.019 52.391 226.859C51.9821 227.25 51.591 228.724 55.7866 234.249C58.4177 237.696 62.3288 239.117 65.671 239.686C69.2977 240.29 72.2666 239.881 72.2666 239.881C72.2666 239.881 72.8177 248.107 68.9599 249.368C66.0088 250.345 65.1732 253.49 64.9421 254.911H73.191C73.8132 254.165 74.6488 253.152 74.6488 253.152C74.6488 253.152 81.511 237.163 79.7332 233.681C77.8488 230.003 70.0621 232.277 71.111 226.592C71.6088 223.892 71.3421 219.948 70.5243 216.412C70.0088 214.192 69.2799 212.149 68.3732 210.692C67.6799 209.555 66.8799 208.773 66.0088 208.524H65.991C62.7554 207.601 48.3554 207.334 38.791 205.824C36.3199 205.398 33.351 203.816 33.351 203.816L34.9154 204.012C33.3154 203.621 29.9554 201.258 27.7332 199.215C27.6443 199.126 27.5555 199.055 27.4666 198.966C27.3955 198.913 27.3421 198.842 27.2888 198.789C26.8266 198.345 26.4355 197.918 26.1332 197.563C26.0266 197.421 25.9199 197.279 25.831 197.154C25.0843 195.449 24.6932 194.205 24.711 192.322C24.711 191.434 24.711 190.492 24.6754 189.675C24.6577 189.16 24.6043 188.68 24.551 188.289C24.5332 188.129 24.4977 187.969 24.4621 187.827C24.1599 186.53 23.5199 185.447 22.8266 184.594C22.5777 184.292 22.311 184.007 22.0799 183.759C21.3332 183.013 20.3199 182.586 19.2355 182.355" fill="#F47458"/>
<path d="M18.969 182.231C18.969 182.231 21.6534 181.201 23.9468 183.492C24.8534 184.398 26.3823 186.832 26.3823 186.832C26.3823 186.832 24.5334 190.83 22.6312 191.434C20.7112 192.038 18.969 182.231 18.969 182.231Z" fill="#B75742"/>
<path d="M20.5156 224.141C22.7912 226.788 20.7112 224.354 22.2756 226.184C22.5956 222.968 21.5823 218.971 20.7467 215.791C22.169 217.319 24.0712 220.356 24.9601 221.653C23.3423 218.882 23.7512 213.499 24.0712 210.354C24.089 210.372 25.9378 212.557 26.6845 213.463C26.8267 212.042 27.0756 208.862 26.5956 207.494C26.0978 206.073 24.6401 204.403 23.5556 203.372C24.7645 204.385 26.2756 205.948 26.8623 207.387C27.6801 209.377 27.0934 214.352 27.0756 214.707C24.3734 211.633 26.2223 213.73 24.5156 211.793C24.3378 214.458 24.0712 219.983 25.3156 222.186C23.8578 221.263 22.489 219.273 21.6534 217.745C23.8401 223.394 22.4178 226.699 22.4178 226.788C22.4356 226.806 22.2934 226.628 20.569 224.389C20.4801 224.745 20.2845 225.473 20.249 225.828C20.249 225.686 20.4267 224.549 20.5156 224.141Z" fill="#B75742"/>
<path d="M11.609 203.355L12.089 207.085C18.4356 207.512 22.2223 206.055 24.4801 204.296C24.4978 204.278 24.5334 204.261 24.5512 204.243C27.3601 201.987 27.7334 199.268 27.7334 199.268L27.5912 198.984L27.1823 198.131L26.489 196.675C26.4001 197.012 26.2756 197.314 26.1334 197.616C23.7867 202.289 14.4534 203.177 12.1423 203.337C11.7867 203.337 11.609 203.355 11.609 203.355Z" fill="#184655"/>
<path d="M59.6089 254.876H51.3778C51.5733 255.053 52.0711 254.982 52.0711 254.982H59.5378L59.6089 254.876Z" fill="#184655"/>
</g>
<path d="M100.5 170C89.1667 181.167 58.2 202.7 25 199.5" stroke="#184655"/>
<defs>
<clipPath id="clip0">
<rect width="100" height="73" fill="white" transform="matrix(-1 0 0 1 100 182)"/>
</clipPath>
</defs>
</svg>
